PathFileType	4	(X/Y/Z)	s05c0301.trc
DataRate	CameraRate	NumFrames	NumMarkers	Units	OrigDataRate	OrigDataStartFrame	OrigNumFrames
200	200	4	50	mm	200	1250	2000
Frame#	Time	racr			lacr			c7			jug			rlel			rdr			llel			ldr			s2			lic			ric			lasi			rasi			rpsi			lpsi			rgt			lgt			rth1			rth2			rth3			rth4			rlfc			rmfc			rsh1			rsh2			rsh3			rsh4			rlmal			rmmal			rcal			rtoe			rmt5			lth1			lth2			lth4			lth3			llfc			lmfc			lsh1			lsh2			lsh3			lsh4			llmal			lmmal			lcal			ltoe			lmt5			SBIKE			LBIKE			RBIKE			
		X1	Y1	Z1	X2	Y2	Z2	X3	Y3	Z3	X4	Y4	Z4	X5	Y5	Z5	X6	Y6	Z6	X7	Y7	Z7	X8	Y8	Z8	X9	Y9	Z9	X10	Y10	Z10	X11	Y11	Z11	X12	Y12	Z12	X13	Y13	Z13	X14	Y14	Z14	X15	Y15	Z15	X16	Y16	Z16	X17	Y17	Z17	X18	Y18	Z18	X19	Y19	Z19	X20	Y20	Z20	X21	Y21	Z21	X22	Y22	Z22	X23	Y23	Z23	X24	Y24	Z24	X25	Y25	Z25	X26	Y26	Z26	X27	Y27	Z27	X28	Y28	Z28	X29	Y29	Z29	X30	Y30	Z30	X31	Y31	Z31	X32	Y32	Z32	X33	Y33	Z33	X34	Y34	Z34	X35	Y35	Z35	X36	Y36	Z36	X37	Y37	Z37	X38	Y38	Z38	X39	Y39	Z39	X40	Y40	Z40	X41	Y41	Z41	X42	Y42	Z42	X43	Y43	Z43	X44	Y44	Z44	X45	Y45	Z45	X46	Y46	Z46	X47	Y47	Z47	X48	Y48	Z48	X49	Y49	Z49	X50	Y50	Z50	
1250	6.2500	714.554229	1317.361785	-165.680413	731.321655	1296.645438	-437.492682	715.462967	1380.433214	-313.468248	651.200951	1228.807888	-297.513860	561.367508	1109.494977	-23.249696	690.116327	919.492468	-92.296575	549.548051	1106.251884	-600.515268	680.742575	921.977208	-487.634125	124.509356	1225.099368	-338.623029	292.981680	1194.935090	-461.047460	255.034148	1259.596022	-186.795800	324.417914	1139.252540	-408.841771	284.454442	1187.184777	-198.487971	158.766292	1277.784301	-303.731291	176.544320	1260.891139	-387.408933	202.501793	1141.238579	-142.297522	203.890847	1099.551236	-476.521979	298.838194	1077.803528	-113.669366	383.077014	1051.165223	-98.278659	439.596430	984.418692	-85.632574	403.679730	1077.668176	-114.464017	543.569728	883.458194	-91.871486	545.263289	869.255885	-204.260566	448.148051	834.855949	-75.006561	393.567713	766.276758	-87.945852	315.812901	732.525868	-97.674767	415.895389	741.986766	-106.863203	216.384383	642.471445	-111.785306	249.952675	653.637385	-188.223283	153.045773	678.911785	-158.284057	289.114095	417.329549	-162.740704	218.794852	489.274740	-95.115326	238.924100	966.253593	-489.909270	276.743293	890.154515	-481.482791	311.440499	896.328391	-468.350150	269.221881	799.829934	-475.183566	286.450201	660.617808	-438.110726	259.812047	652.857821	-335.999783	225.064909	550.191465	-470.668111	217.264540	464.279569	-458.771127	167.079737	390.946220	-460.128672	245.470379	456.732197	-433.460880	137.720480	276.030959	-453.810855	159.700915	297.315169	-379.997332	68.832044	261.708410	-417.328839	333.298058	133.166703	-391.087747	230.225374	146.324217	-466.012775	-219.619176	911.108276	-275.600353	-53.383762	78.948070	-475.065430	-53.377775	79.181400	-77.464859	
1251	6.2550	714.277518	1317.881466	-163.858853	731.740769	1298.137122	-435.330442	715.623024	1380.969907	-311.367793	650.666332	1230.108395	-296.188665	561.997556	1109.913922	-23.702081	690.230567	920.328175	-92.261069	550.739280	1108.000543	-599.728361	681.463968	922.062647	-487.944700	124.976594	1226.549061	-343.324932	295.529547	1195.649692	-462.689625	252.618913	1262.259121	-189.705685	325.783230	1140.495395	-409.289523	281.590479	1189.907023	-200.655076	159.022476	1279.033643	-308.770336	177.697819	1262.178297	-391.771427	199.990122	1144.273337	-145.230711	206.554452	1100.521935	-478.803891	296.971516	1082.043872	-116.207537	381.418551	1056.393296	-100.349976	438.625711	990.698655	-86.690219	401.785467	1083.486993	-116.000590	545.379974	891.854226	-91.180146	547.898268	877.793304	-204.343753	451.583998	841.176804	-75.297234	398.488483	771.099251	-88.453696	321.385295	736.037614	-98.129912	421.459322	747.665380	-107.495463	223.421712	644.026601	-112.018004	256.689794	655.603672	-188.170951	159.161550	678.872507	-158.389930	300.803726	420.496587	-162.975472	229.004703	491.036760	-95.172199	240.636611	968.237702	-491.287878	277.190844	891.513117	-482.798942	311.824834	897.097179	-469.285317	268.193110	801.304063	-476.358132	282.987936	661.398114	-439.652085	255.087426	654.079239	-337.299297	221.408561	551.299316	-472.861006	212.812109	465.342324	-460.997664	162.172645	392.478491	-463.183528	240.580752	457.695213	-435.223379	131.929642	277.496591	-456.712383	153.837343	298.742323	-381.738014	62.618127	265.227651	-420.978631	322.916696	129.777168	-389.691994	221.385523	144.961652	-466.315247	-219.717757	911.107640	-275.617213	-53.398325	78.964226	-475.081632	-53.385792	79.176928	-77.483366	
1252	6.2600	714.140780	1318.251593	-162.097705	732.016561	1299.702328	-433.076723	715.798493	1381.478483	-309.280432	650.096380	1231.274599	-294.413132	562.512522	1110.015545	-24.198735	690.342872	921.240302	-92.323553	551.924455	1109.633880	-598.958397	682.203878	922.129238	-488.313331	125.967350	1228.676632	-348.949543	297.786269	1196.795000	-464.357858	250.081237	1265.268183	-192.447177	326.948216	1142.009501	-409.647903	279.646410	1192.978313	-202.730052	159.455736	1280.597838	-313.875391	178.681798	1264.028293	-396.077223	196.975202	1147.327669	-148.642287	209.044333	1101.871273	-481.264624	294.445613	1086.049226	-118.923199	379.028134	1061.478764	-102.138341	436.911794	996.502561	-88.041428	399.224232	1088.916463	-117.473587	547.034798	899.746597	-92.337588	549.754159	886.197491	-204.691931	454.458494	846.838812	-75.713558	402.881485	775.599861	-88.832272	326.637364	738.778218	-98.513190	426.273048	752.607361	-108.132615	229.907470	644.802182	-112.317384	262.981923	656.996533	-188.089203	164.794178	678.086292	-158.519478	312.556605	423.266360	-163.194521	239.817386	492.139845	-94.690552	242.848606	970.506007	-492.640485	278.305223	893.277574	-483.650222	312.823125	898.500759	-469.785575	267.970103	803.311727	-477.737076	280.608387	662.687905	-440.955429	251.790278	655.893287	-338.516915	218.510233	552.971949	-474.771643	209.165119	467.273638	-462.934297	157.987128	394.663735	-465.956653	236.466696	459.349766	-436.707385	126.712592	279.900560	-459.177670	148.602120	301.174577	-383.394817	56.896813	269.921862	-424.216831	312.408434	126.805640	-388.269789	212.522183	144.390397	-466.448938	-219.851804	911.090445	-275.625689	-53.412342	78.975281	-475.116617	-53.421848	79.213869	-77.498789	
1253	6.2650	714.138280	1318.298271	-160.540120	732.162470	1301.282664	-430.685836	715.868017	1382.003450	-307.082177	649.439503	1232.326063	-293.128822	562.669877	1110.102886	-23.888962	690.523080	922.302618	-92.505536	553.188521	1111.241317	-598.219590	682.769987	922.284400	-488.956634	126.366549	1231.156796	-353.409287	299.734610	1198.435903	-465.967960	247.697122	1268.214128	-195.415352	328.231794	1144.323157	-410.941432	277.476788	1196.248844	-204.753973	157.792274	1284.156741	-317.321977	179.678654	1266.292921	-399.953552	193.964624	1151.092532	-151.476949	211.388693	1103.537657	-483.880334	291.390547	1089.724344	-121.651538	376.046229	1066.191085	-104.101937	434.671978	1002.036310	-89.585721	396.096908	1094.038941	-118.935513	547.678236	907.151288	-92.635292	550.983510	893.858979	-204.623932	456.840712	852.099506	-76.287794	406.905600	779.640428	-89.291316	331.562186	740.907532	-98.795031	430.565257	757.065440	-109.395526	235.720554	644.953468	-112.525497	268.693046	657.625368	-188.055585	169.712480	676.372570	-158.763480	324.724545	425.688616	-163.532621	249.749651	492.672796	-94.649407	245.418698	973.083776	-493.691987	280.054375	895.554959	-484.114045	314.370968	900.450791	-469.823316	268.790974	805.678458	-478.531092	279.429974	664.458188	-442.065144	249.685498	658.204556	-339.299589	216.487714	555.375411	-476.284568	206.200504	469.713697	-464.456498	154.454733	397.626412	-468.279954	233.122983	461.623071	-437.962073	122.003455	283.027608	-461.082780	143.605334	304.215662	-384.884040	51.653413	275.988007	-427.370018	301.929824	124.302336	-387.170199	203.594779	144.621696	-466.544294	-219.938670	911.114437	-275.649811	-53.445773	79.033531	-475.140646	-53.446609	79.255695	-77.507865	
